<?xml version="1.0" encoding="UTF-8"?>
<svg id="Camada_2" data-name="Camada 2" xmlns="http://www.w3.org/2000/svg" viewBox="0 0 198.74349177 192.08951599">
  <defs>
    <style>
      .cls-1 {
        fill: #007160;
        stroke-width: 0px;
      }
    </style>
  </defs>
  <g id="Camada_1-2" data-name="Camada 1">
    <path class="cls-1" d="M34.99196882,188.90778996c-8.31711885,0-16.58932582-3.10593723-22.89383104-9.15921661l-1.94805281-1.86805353c-6.45046882-6.19362901-10.15008497-14.8714464-10.15008497-23.8103141V35.96038124c0-6.5360821,1.91717589-12.86585024,5.54381024-18.30720525l1.97050875-2.95716663C13.65040465,5.49468787,23.91557632,0,34.97512687,0h2.35506673c8.82237751,0,17.41738862,3.61540637,23.58715819,9.91850809l80.24910931,81.99646215c3.33190013,3.40347844,3.27295328,8.8630789-.12912166,12.19357553-3.40488193,3.33049663-8.86728939,3.27154979-12.19357553-.13192865L48.5946546,21.98155847c-2.94734215-3.00909599-7.05116522-4.73539639-11.264461-4.73539639h-2.35506673c-5.27995294,0-10.18096189,2.62313451-13.11146209,7.01748131l-1.97050875,2.95576313c-1.73191439,2.59646809-2.64699395,5.62100253-2.64699395,8.74097472v118.10982449c0,4.26803213,1.7655983,8.4111531,4.84767609,11.36831973l1.94524582,1.86805353c5.36135572,5.1466208,13.69531653,5.83012348,19.8285952,1.62945916l16.89528801-11.58586165c3.92978954-2.69611632,9.29114526-1.6898095,11.98866508,2.23436605,2.69190583,3.92838604,1.69261649,9.29535575-2.23717304,11.98866508l-16.89528801,11.58586165c-5.62521302,3.85680773-12.14024267,5.74872069-18.6272024,5.74872069Z"/>
    <path class="cls-1" d="M162.52767421,192.08951599h-1.18735784c-8.75781668,0-17.3107229-3.57049449-23.4692645-9.79640391L60.45700501,104.00889754c-3.34874208-3.38663648-3.31786516-8.84623694.06736782-12.19497903,3.38523299-3.34874208,8.84202645-3.31926866,12.19357553.06877132l77.41404686,78.28281104c2.94172817,2.97260508,7.02590229,4.67785304,11.20832115,4.67785304h1.18735784c4.30873353,0,8.47711743-1.79366822,11.44130153-4.9206579l3.20558546-3.38663648c2.79015057-2.94172817,4.32276849-6.79011492,4.32276849-10.83920164V37.07475727c0-2.01261364-.37894399-3.9817189-1.128411-5.84836893l-1.62805566-4.07996364c-2.40559259-6.01117449-8.15150629-9.90026264-14.63004504-9.90026264-4.21048879,0-8.16554126,1.63928363-11.14376033,4.61469571l-11.8651574,11.8651574c-3.36839103,3.36558404-8.8251845,3.36698753-12.19357553-.0014035-3.36839103-3.36698753-3.36839103-8.826588,0-12.19497903l11.8651574-11.86375391c6.2343304-6.2329269,14.52057233-9.66587876,23.33733586-9.66587876,13.57180886,0,25.59977183,8.14308532,30.6439374,20.74507826l1.62805566,4.07715664c1.56630183,3.9073336,2.36068071,8.03220911,2.36068071,12.25252237v118.62210063c0,8.48273141-3.21400644,16.54441394-9.04693691,22.70014855l-3.20558546,3.38523299c-6.20906747,6.55152055-14.94162121,10.30727655-23.96329519,10.30727655Z"/>
  </g>
</svg>