<svg width="145" height="31" viewBox="0 0 145 31" fill="none" xmlns="http://www.w3.org/2000/svg">
<g clip-path="url(#clip0_119_683)">
<path d="M5.64367 30.0034C4.30171 30.0034 2.96781 29.5176 1.95166 28.5728L1.63713 28.2807C0.596787 27.314 0 25.9584 0 24.5622V6.11612C0 5.09472 0.309684 4.10612 0.893568 3.25652L1.21132 2.79424C2.20166 1.35741 3.85815 0.5 5.64206 0.5H6.02271C7.44533 0.5 8.83245 1.06536 9.82764 2.04927L22.7715 14.8558C23.3086 15.3868 23.2989 16.2395 22.7505 16.7596C22.2021 17.2796 21.3198 17.2703 20.7843 16.7393L7.83727 3.93277C7.36145 3.46267 6.70015 3.19249 6.0211 3.19249H5.64045C4.78882 3.19249 3.99848 3.60167 3.52588 4.28885L3.20814 4.75113C2.9291 5.15719 2.78071 5.62885 2.78071 6.11612V24.5622C2.78071 25.229 3.0662 25.8756 3.56298 26.3379L3.87751 26.6299C4.74204 27.4342 6.08723 27.5404 7.07596 26.8845L9.80183 25.0744C10.4357 24.6527 11.3003 24.8105 11.7357 25.4227C12.1696 26.0365 12.0083 26.8751 11.3744 27.2953L8.64858 29.1053C7.74049 29.7082 6.69047 30.0034 5.64367 30.0034Z" fill="#35B29F"/>
<path d="M26.215 30.5H26.0231C24.6102 30.5 23.2311 29.9424 22.2375 28.9695L9.75178 16.7439C9.21144 16.2145 9.21628 15.3618 9.76307 14.8402C10.3099 14.317 11.1889 14.3216 11.7292 14.8511L24.215 27.0766C24.6892 27.5405 25.3489 27.8075 26.0231 27.8075H26.215C26.9102 27.8075 27.5828 27.528 28.0603 27.0391L28.578 26.5097C29.028 26.0505 29.2748 25.4492 29.2748 24.8167V6.28947C29.2748 5.97556 29.2135 5.66789 29.0925 5.37584L28.8296 4.73864C28.4409 3.80002 27.5151 3.19249 26.4699 3.19249C25.7908 3.19249 25.1521 3.44862 24.6731 3.91246L22.7585 5.76628C22.215 6.2926 21.3343 6.2926 20.7923 5.76628C20.2488 5.23997 20.2488 4.38724 20.7923 3.86249L22.7069 2.01023C23.7118 1.03725 25.0489 0.5 26.4715 0.5C28.6603 0.5 30.6006 1.77128 31.4135 3.74067L31.6765 4.37787C31.9297 4.98852 32.0571 5.63197 32.0571 6.29104V24.8167C32.0571 26.1411 31.5394 27.3999 30.5974 28.3619L30.0797 28.8914C29.078 29.9143 27.6699 30.5016 26.215 30.5016V30.5Z" fill="#35B29F"/>
<path d="M39.0992 26.1021V6.23013H46.6623L54.3931 22.4803H55.3496L54.7867 22.9707V6.23013H59.1158V26.1021H51.4979L43.7671 9.85031H42.8106L43.3735 9.35992V26.1005H39.1009L39.0992 26.1021Z" fill="black"/>
<path d="M73.5661 26.619C71.7112 26.619 70.0935 26.3067 68.716 25.6804C67.3386 25.0541 66.1998 24.2295 65.2998 23.2034C64.3998 22.1789 63.7304 21.0669 63.2901 19.869C62.8498 18.6712 62.6288 17.5186 62.6288 16.4113V15.8131C62.6288 14.5793 62.8578 13.3596 63.3175 12.1524C63.7772 10.9451 64.4659 9.85187 65.3837 8.87264C66.3014 7.89341 67.445 7.10784 68.8128 6.5175C70.1806 5.92715 71.7645 5.63197 73.5645 5.63197C75.3646 5.63197 76.9468 5.92715 78.3162 6.5175C79.684 7.10784 80.8276 7.89185 81.7453 8.87264C82.6631 9.85187 83.3567 10.9467 83.826 12.1524C84.2938 13.3596 84.5293 14.5793 84.5293 15.8131V16.4113C84.5293 17.5186 84.3051 18.6712 83.8551 19.869C83.4051 21.0669 82.7308 22.1789 81.8308 23.2034C80.9308 24.2295 79.7921 25.0541 78.4146 25.6804C77.0372 26.3067 75.421 26.619 73.5645 26.619H73.5661ZM73.5661 22.4538C74.5403 22.4538 75.4162 22.2898 76.1952 21.9634C76.9727 21.637 77.6388 21.1825 78.192 20.6031C78.7453 20.0221 79.1614 19.3505 79.4437 18.5884C79.7243 17.8263 79.8647 17.0095 79.8647 16.138C79.8647 15.2119 79.7195 14.3638 79.4292 13.5923C79.1388 12.8208 78.7162 12.1492 78.1646 11.5776C77.6114 11.006 76.9517 10.5656 76.1823 10.2579C75.4129 9.95026 74.5419 9.79565 73.5677 9.79565C72.5935 9.79565 71.7209 9.95026 70.9532 10.2579C70.1838 10.5672 69.5241 11.006 68.9709 11.5776C68.4176 12.1492 68.0015 12.8208 67.7192 13.5923C67.4386 14.3638 67.2966 15.2119 67.2966 16.138C67.2966 17.0095 67.437 17.8263 67.7192 18.5884C67.9999 19.3505 68.4176 20.0221 68.9709 20.6031C69.5241 21.1841 70.1838 21.637 70.9532 21.9634C71.7209 22.2898 72.5935 22.4538 73.5677 22.4538H73.5661Z" fill="black"/>
<path d="M88.0149 26.1021V6.06771H92.6247V26.1021H88.0149ZM91.3892 19.7316V16.2208H96.4489C97.1232 16.2208 97.7087 16.0896 98.2054 15.8256C98.7022 15.5633 99.0861 15.19 99.3587 14.709C99.6297 14.228 99.7668 13.6704 99.7668 13.0348C99.7668 12.3991 99.6313 11.8416 99.3587 11.3605C99.0861 10.8795 98.7022 10.5078 98.2054 10.2439C97.7087 9.9815 97.1232 9.84875 96.4489 9.84875H91.3892V6.06459H96.0844C97.7893 6.06459 99.27 6.31447 100.526 6.81268C101.781 7.31244 102.747 8.05116 103.422 9.03195C104.096 10.0112 104.435 11.2465 104.435 12.7333V13.1691C104.435 14.6387 104.093 15.86 103.409 16.8299C102.725 17.8013 101.759 18.5275 100.514 19.007C99.2668 19.488 97.7909 19.7285 96.086 19.7285H91.3908L91.3892 19.7316ZM100.47 26.1021L94.4537 17.5545H99.5135L105.81 26.1021H100.468H100.47Z" fill="black"/>
<path d="M115.511 26.619C113.656 26.619 112.09 26.3332 110.815 25.7616C109.541 25.19 108.575 24.4091 107.92 23.4205C107.264 22.4319 106.936 21.2934 106.936 20.0034H111.406C111.406 20.5109 111.551 20.9842 111.841 21.4183C112.132 21.8541 112.577 22.2039 113.177 22.4663C113.777 22.7302 114.554 22.8614 115.511 22.8614C116.372 22.8614 117.095 22.7521 117.675 22.535C118.256 22.3179 118.696 22.0134 118.996 21.6229C119.296 21.2325 119.446 20.7842 119.446 20.2751C119.446 19.6395 119.166 19.1366 118.603 18.7649C118.04 18.3932 117.132 18.1527 115.875 18.0433L114.328 17.9075C112.285 17.7435 110.654 17.1266 109.436 16.0568C108.219 14.987 107.609 13.5704 107.609 11.8103C107.609 10.5406 107.923 9.44269 108.551 8.51656C109.178 7.59043 110.056 6.87826 111.18 6.38006C112.304 5.88186 113.635 5.63197 115.172 5.63197C116.709 5.63197 118.166 5.9006 119.319 6.43472C120.472 6.97041 121.358 7.72318 121.975 8.6946C122.593 9.66602 122.903 10.8045 122.903 12.1102H118.404C118.404 11.6198 118.282 11.1716 118.038 10.7624C117.795 10.3532 117.433 10.0237 116.956 9.7691C116.478 9.51453 115.883 9.38803 115.17 9.38803C114.496 9.38803 113.928 9.49735 113.469 9.71443C113.009 9.93152 112.667 10.2267 112.443 10.6C112.219 10.9717 112.106 11.3762 112.106 11.8119C112.106 12.3741 112.312 12.8645 112.724 13.2815C113.135 13.6985 113.811 13.9437 114.748 14.0171L116.322 14.153C117.82 14.2795 119.143 14.5934 120.287 15.0916C121.43 15.5914 122.325 16.2707 122.972 17.1328C123.619 17.9949 123.941 19.0429 123.941 20.2767C123.941 21.5105 123.6 22.6584 122.916 23.611C122.232 24.5637 121.261 25.304 120.006 25.8303C118.749 26.3566 117.251 26.619 115.507 26.619H115.511Z" fill="black"/>
<path d="M127.121 26.1021V6.23013H131.73V26.1021H127.121ZM130.916 18.0715V14.1514H141.205V18.0715H130.916ZM140.39 26.1021V6.23013H145V26.1021H140.39Z" fill="black"/>
</g>
<defs>
<clipPath id="clip0_119_683">
<rect width="145" height="30" fill="white" transform="translate(0 0.5)"/>
</clipPath>
</defs>
</svg>
